<svg width="32" height="32" viewBox="0 0 32 32" fill="none" xmlns="http://www.w3.org/2000/svg">
	<path d="M0.179381 26.7053C-0.0826679 27.2576 -0.0388136 27.8838 0.190942 28.4032C0.1262 28.9947 0.269557 29.5952 0.787952 30.0558C1.27059 30.4845 1.75309 30.9134 2.23547 31.3423C3.08366 32.096 4.41179 32.3338 5.23678 31.3423C8.98398 26.8392 12.8933 22.5188 16.9648 18.381C19.9849 21.4273 23.0417 24.4331 26.0766 27.4423C27.1418 28.4988 28.6836 28.1673 29.3537 26.9087C30.3299 26.3858 31.1213 25.7038 31.7754 24.5393C32.0869 23.9846 32.0626 23.2845 31.7754 22.7278C29.8161 18.9343 26.029 15.5989 22.9152 12.5295C23.3319 12.1268 23.7455 11.7202 24.1705 11.3259C28.3656 7.43549 31.1953 4.967 25.9455 0.978127C25.8746 0.924276 25.8024 0.936512 25.7305 0.904717C25.6328 0.854377 25.529 0.818969 25.4222 0.799512C25.3886 0.795758 25.3548 0.794147 25.321 0.794686C25.2145 0.773027 25.1056 0.767646 24.9977 0.778704C22.1752 1.37631 19.5504 3.76489 17.1689 6.39518C14.849 3.92578 12.3787 1.56666 9.66233 0.166869C9.01561 -0.166474 8.24457 0.027789 7.74667 0.494053C6.91181 0.425969 6.15064 0.986202 5.76859 1.7913C5.71201 1.82909 5.67556 1.85065 5.61444 1.89201C4.40069 2.71084 4.28978 4.3416 5.18791 5.46565C7.21594 8.00355 9.37176 10.4161 11.5696 12.7859C7.61195 16.9616 2.67101 21.4648 0.179381 26.7053Z"
	fill="black"/>
</svg>