<svg width="120" height="120" viewBox="0 0 120 120" fill="none" xmlns="http://www.w3.org/2000/svg">
	<path
		d="M81.192 52.8V59.904H67.176V96H53.16V31.872C51.752 32 50.472 32.288 49.32 32.736C48.168 33.184 47.176 33.92 46.344 34.944C45.576 35.904 44.968 37.216 44.52 38.88C44.136 40.544 43.944 42.624 43.944 45.12C43.944 47.232 44.072 49.056 44.328 50.592C44.648 52.064 45 53.312 45.384 54.336C45.832 55.36 46.28 56.192 46.728 56.832C47.176 57.408 47.56 57.888 47.88 58.272C43.528 58.272 40.296 57.28 38.184 55.296C36.072 53.248 35.016 50.016 35.016 45.6C35.016 42.592 35.528 39.776 36.552 37.152C37.576 34.528 39.176 32.256 41.352 30.336C43.528 28.352 46.28 26.816 49.608 25.728C53 24.576 57.032 24 61.704 24C63.304 24 64.808 24.064 66.216 24.192C67.688 24.32 69.096 24.448 70.44 24.576C71.784 24.704 73.16 24.832 74.568 24.96C75.976 25.088 77.48 25.152 79.08 25.152C80.68 25.152 82.184 25.088 83.592 24.96C85 24.768 86.344 24.448 87.624 24C87.624 26.56 87.4 28.608 86.952 30.144C86.504 31.616 85.896 32.768 85.128 33.6C84.36 34.368 83.464 34.88 82.44 35.136C81.48 35.392 80.456 35.52 79.368 35.52C77.576 35.52 75.624 35.36 73.512 35.04C71.464 34.656 69.352 34.24 67.176 33.792V52.8H81.192Z"
		fill="#fff"/>
</svg>
